# xmcd CD database file
#
# Track frame offsets:
#	150
#	18445
#	61997
#	79635
#	109271
#	127285
#	149526
#	172600
#	197651
#	224869
#	255229
#
# Disc length: 4138 seconds
#
# Revision: 0
# Processed by: cddbd v1.5PL3 Copyright (c) Steve Scherf et al.
# Submitted via: CDex 1.50
#
DISCID=9e10280b
DTITLE=Roberto Aymes - Antologia I
DYEAR=1996
DGENRE=Jazz
TTITLE0=Marias
TTITLE1=Blues en terceras
TTITLE2=La niña de los ojos verdes
TTITLE3=Silenciosa
TTITLE4=Perdido
TTITLE5=Tributo a Wes
TTITLE6=Igor
TTITLE7=Sin tiempo
TTITLE8=Francisca de las gaviotas
TTITLE9=Kamazotz
TTITLE10=Glaciar.Suite
EXTD=YEAR: 1996
EXTT0=
EXTT1=
EXTT2=
EXTT3=
EXTT4=
EXTT5=
EXTT6=
EXTT7=
EXTT8=
EXTT9=
EXTT10=
PLAYORDER=
